<?xml version="1.0" encoding="utf-8"?>
<!-- Generator: Adobe Illustrator 19.2.1, SVG Export Plug-In . SVG Version: 6.00 Build 0)  -->
<svg version="1.1" id="Layer_1" xmlns="http://www.w3.org/2000/svg" xmlns:xlink="http://www.w3.org/1999/xlink" x="0px" y="0px"
	 viewBox="0 0 510.2 84.7" style="enable-background:new 0 0 510.2 84.7;" xml:space="preserve">
<style type="text/css">
	.st0{fill:#FFFFFF;}
</style>
<path class="st0" d="M389.3,4.8c-20.8,0-38.4,17.8-38.4,38.9c0,24,16.3,41.4,38.7,41.4c21.2,0,38.4-18.6,38.4-41.4
	C428,22.3,410.6,4.8,389.3,4.8 M389.6,75.3c-17.9,0-24.4-18.7-24.4-31.2c0-11.4,6.5-29.5,24.1-29.5c16.8,0,24.4,17,24.4,29.1
	C413.7,59.5,405.4,75.3,389.6,75.3 M24.5,4.8c13.6,0,28.1,6,28.1,23C52.6,44.2,36.7,54,20,54c-0.1-2.7-0.1-5.5-0.1-8.3
	c12.6-1,19.3-7.1,19.3-17.1c0-8.7-7-14.7-17.1-14.7H14c0,25.2,0.5,61.5,1.5,70.5c-5.4-1.1-9.9-1.1-15.4,0C1.4,73.3,2.2,15.2,0,4.8
	c0,0,10.2,0.4,12.5,0.4C15.1,4.9,21.7,4.8,24.5,4.8 M154.8,5.4c-3.9,15.4-20.4,60-28.3,78.9c5.2-0.7,10.7-0.6,13.2-0.1
	c2.6-8.5,5.5-18.6,6.7-22.4c8.2-0.6,17.9-0.6,27.7,0c3,7.9,4.7,13.5,7.4,22.3c5-0.5,10.2-0.4,15.7,0.1
	c-7.9-18.9-26.2-67.6-29.1-78.8C164.2,5.9,159.1,5.9,154.8,5.4 M149.5,51.2c0,0,7.5-22.4,10.1-30.2c0,0,7.8,22.2,10.6,30.2
	C161.8,52,157.6,52,149.5,51.2 M83.9,74.3c8.3,0.4,28.1-0.8,28.1-0.8c0.1,8.5-0.5,11.1-0.5,11.1c-7.4-1-29.6-1.5-41.7,0
	c1.8-19.2,1.2-58.9,0.1-79.4c11.1,0.9,32.4,0.8,41.4,0v11.1c-7.7-0.7-20-1.5-27-1.2c0,0-0.3,18.4-0.1,23.1
	c12.5,0.9,21.7-0.6,25.7-0.9v11.1c0,0-14.5-1.4-25.6-0.6C83.9,55.1,83.9,66.1,83.9,74.3 M509.9,82.6c0,0.2,0.3,1.6,0.3,1.6
	c-3.4-0.5-8.7-0.6-11.9-0.1c-6.3-9.2-31-43-40.7-55.6c-0.4,18.5-0.6,46.4,0.6,55.6c-1.5,0-3.7-0.1-4.8-0.1c-3.3,0-4.8-0.2-7.8,0.2
	c1.6-9.5,2-68.3,0-78.7c4.8,0.1,8.7,0.2,9.9,0.1c1.1-0.1,1.9-0.2,1.9-0.2s26.6,35.7,40.5,54.3c0.1-7,0.8-42.4-0.6-54.4
	c1.9,0.3,4.2,0.9,6.5,0.9c2.1,0,4.4-0.5,6.5-0.9C508.3,20.2,507.6,71.3,509.9,82.6 M263.5,26.1c0,12.7-8.6,20.1-16.9,21.7
	c6,7.7,27.8,36.5,27.8,36.5c-5.5-0.8-13.5-0.7-17.6-0.2c-6.9-10.8-18.6-27.6-23.1-33c-0.1-3.1-0.1-5.5-0.2-8.5
	c13.5,0.3,16.3-8.7,16.3-15c0-8.5-7.7-12.9-15.3-12.9H228c-0.6,15.1,0.5,52.2,1.2,69.5c-5.2-0.5-11.1-0.5-15.2,0
	c1.8-12.7,1.5-70.3,0-79.1c0,0,8.3,0.6,11.9,0.4c3.3-0.2,6.3-0.3,10.1-0.3C244.2,5.2,263.5,7.2,263.5,26.1 M319.4,39.3
	c8.7,5.5,15.3,10.7,15.3,22.4c0,17-13.3,23-24.7,23c-9.4,0-19.3-5-23.9-8.5c1.7-3.4,3.5-6.9,4.8-11.7c5.1,5.7,13,9.8,18.4,9.8
	c7.1,0,11.4-3.9,11.4-10.4c0.3-4.9-3.2-8.4-7.6-12c-3.2-2.7-11.3-7.9-13.3-9.5c-6.4-5.2-10.4-9.6-10.4-17.9c0-11.1,9.9-19.5,23-19.5
	c6.7,0,13,2,20.6,7.1c-1.9,2.9-4.5,7.2-5.9,11.3c-3.1-4.2-7.8-8.6-14.4-8.6c-6.2,0-10.1,3.6-10.1,9.4c0,1.9,1.4,4,4.2,6.6
	C309.7,33,313.6,35.7,319.4,39.3"/>
</svg>
